<svg height="13" viewBox="0 0 13 13" width="13" xmlns="http://www.w3.org/2000/svg"><path d="m12.29475.70525c-.4352833-.43528333-1.03675-.7046-1.7012667-.7046-.66451663 0-1.26576663.26931667-1.70126663.7046l-7.3801 7.3801-1.30455 3.84605c-.02318334.0652167-.03661667.1404-.03661667.2186167 0 .1867666.07605.3557666.1989.4775333l.00238333.0023833c.12176667.1226334.29055.1986834.47688334.1989.07843333 0 .15383333-.0134333.22403333-.0379166l-.00476667.0015166 3.84605-1.30455 7.38009997-7.38009997c.4352834-.43528333.7046-1.03675.7046-1.70126666 0-.66451667-.2693166-1.26576667-.7046-1.70126667zm-7.85005 10.0266833-3.2942 1.1175667 1.11756667-3.2942 5.65391666-5.65391667 2.17684997 2.17685zm7.2373167-7.23709997-.97045.97045-2.17685003-2.17663333.97045-.97045c.27863333-.27928333.66408333-.45218333 1.08961663-.45218333.8499834 0 1.5392.68921666 1.5392 1.5392 0 .42575-.1729.81098333-.4521833 1.08961666z" fill="#708393"/></svg>