<?xml version="1.0" encoding="UTF-8"?>
<svg width="13px" height="13px" viewBox="0 0 13 13" version="1.1" xmlns="http://www.w3.org/2000/svg" xmlns:xlink="http://www.w3.org/1999/xlink">
    <!-- Generator: Sketch 55 (78076) - https://sketchapp.com -->
    <title>icon-type3/note</title>
    <desc>Created with Sketch.</desc>
    <g id="Final/WIP" stroke="none" stroke-width="1" fill="none" fill-rule="evenodd">
        <g id="Create/Manage-Sets" transform="translate(-17.000000, -285.000000)" fill="#708393" fill-rule="nonzero">
            <g id="Side-navigation-dark-Copy-3" transform="translate(0.000000, 54.000000)">
                <g id="left-nav">
                    <g id="Group-5" transform="translate(0.000000, 60.000000)">
                        <g id="icon-type3/note" transform="translate(17.000000, 171.000000)">
                            <path d="M10.621,11.9420984 L0.871,11.9420984 L0.871,2.13881967 L7.371,2.13881967 L8.23766667,1.28636066 L0.654333333,1.28636066 C0.295533333,1.28678689 0.00476666667,1.57278689 0.00433333333,1.92570492 L0.00433333333,12.1552131 C0.00476666667,12.5081311 0.295533333,12.7941311 0.654333333,12.7945574 L10.8376667,12.7945574 C11.1964667,12.7941311 11.4872333,12.5081311 11.4876667,12.1552131 L11.4876667,4.90931148 L10.621,5.76177049 L10.621,11.9420984 Z" id="Shape"></path>
                            <path d="M12.5233333,0.468852459 C12.2286667,0.179655738 11.8217667,0.000639344262 11.3726167,0.000639344262 C10.9234667,0.000639344262 10.5165667,0.179442623 10.2216833,0.468852459 L4.73286667,5.86768852 L4.19336667,8.10731148 L4.18946667,8.12542623 C4.18405,8.15163934 4.18101667,8.18168852 4.18101667,8.21259016 C4.18101667,8.46768852 4.3914,8.67462295 4.65075,8.67462295 C4.68195,8.67462295 4.7125,8.67163934 4.74218333,8.66588525 L4.73915,8.66631148 L7.03473333,8.13160656 L12.52355,2.73277049 C12.8175667,2.44293443 12.9995667,2.04270492 12.9995667,1.60091803 C12.9995667,1.15913115 12.8177833,0.758901639 12.52355,0.468852459 L12.52355,0.468852459 L12.5233333,0.468852459 Z M11.9103833,2.13008197 L6.59533333,7.358 L5.18526667,7.68662295 L5.51936667,6.29967213 L10.8344167,1.0717541 C10.972,0.93642623 11.1622333,0.852459016 11.3724,0.852459016 C11.7925167,0.852459016 12.1333333,1.18747541 12.1333333,1.60091803 C12.1333333,1.80763934 12.0481833,1.9947541 11.9103833,2.13008197 L11.9103833,2.13008197 L11.9103833,2.13008197 Z" id="Shape"></path>
                        </g>
                    </g>
                </g>
            </g>
        </g>
    </g>
</svg>